<?xml version="1.0" encoding="UTF-8"?>
<svg id="Vertical_Logo" data-name="Vertical Logo" xmlns="http://www.w3.org/2000/svg" viewBox="0 0 376.42 376.59">
  <polygon points="224.78 76.4 224.76 76.4 224.78 76.42 224.78 76.4"/>
  <polygon points="82.27 134.42 199.75 251.53 199.75 226.57 82.27 109.44 82.27 134.42"/>
  <path d="M261.62,113.08v-.02l-18.36-18.33h-25.11s-18.4-18.33-18.4-18.33h25.02l-18.19-18.31-25.21.04-49.02-48.74c-3.87,1.62-12.71,7.36-15.27,9.61l45.92,45.78v100s36.75,36.64,36.75,36.64v-25s-18.38-18.33-18.38-18.33v-81.69h18.4l-.02,83.97h18.4v-65.64l18.34,18.35v47.3h18.38s0-29.01,0-29.01l-18.38-18.29h25.13Z"/>
  <path d="M210.55,29.07c0-16.06-13.04-29.07-29.15-29.07v58.13c16.11,0,29.15-13.01,29.15-29.07Z"/>
  <path d="M144.63,146.53l-.02-75.11-40.4-40.28c-3.78,4.27-7.73,10.06-10.36,14.67l32.4,32.32v25.11l-39.99-39.87c-2.19,7.57-3.46,13.81-3.84,21.16l62.19,62h.02Z"/>
  <path d="M198.29,331.91c13.13-3.2,15.95-14.56,15.95-20.9,0-8.65-3.88-16.32-10.27-20.1-5-3.11-11.79-4.32-23.59-4.32h.01s-31.63,0-31.63,0v89.99h37.88c9.43,0,14.98-1.25,19.56-4.22,5.97-3.91,9.43-11.32,9.43-19.68,0-6.61-2.07-11.87-6.25-15.65-2.91-2.7-5.42-3.92-11.1-5.13ZM171.25,302.91h5.26c10.53,0,14.84,2.97,14.84,10.39s-4.3,10.51-14.56,10.51h-5.54v-20.9ZM179.42,360.91h-8.19s.01-21.18.01-21.18h5.12c6.8,0,9.03.26,11.52,1.61,3.33,1.76,5,4.85,5,9.17,0,7.28-4.03,10.39-13.46,10.39Z"/>
  <path d="M347.24,286.6h-27.54l-28.32,86.8-19.9-33.67h-.01c13.58-4.22,19.51-14.26,19.51-25.73,0-24.43-22.12-27.4-34.32-27.4h-32.12v89.99h22.49v-37.32l20.26,37.32h45.86l5.47-17.71h28.81l5.47,17.71h23.52l-29.18-89.99ZM253.86,325.61h-6.86v-22.69h6.61c9.53,0,15.38,2.26,15.38,10.93,0,10.5-5.85,11.76-15.13,11.76ZM324.08,341.05l8.94-28.69,8.93,28.69h-17.87Z"/>
  <polygon points="81.45 376.59 137.76 376.59 137.76 358.92 103.15 358.92 103.15 340.34 132.49 340.34 132.49 322.68 103.15 322.68 103.15 304.28 137.76 304.28 137.76 286.6 81.45 286.6 81.45 376.59"/>
  <path d="M273.25,140.19l-.08,20.18h-18.29c0,16.06,13.04,29.07,29.15,29.07s29.15-13.01,29.15-29.07v-.04l-20.22-20.15h-19.71Z"/>
  <polygon points="14.01 286.6 4.45 304.27 38.74 304.27 0 376.59 59.59 376.59 69.14 358.92 34.85 358.92 73.58 286.6 14.01 286.6"/>
</svg>