<svg width="24" height="24" viewBox="0 0 24 24" fill="black" xmlns="http://www.w3.org/2000/svg">
<path fill-rule="evenodd" clip-rule="evenodd" d="M12.5 11C10.0147 11 8 13.0147 8 15.5C8 17.9853 10.0147 20 12.5 20C14.9853 20 17 17.9853 17 15.5C17 13.0147 14.9853 11 12.5 11ZM6 15.5C6 11.9101 8.91015 9 12.5 9C16.0899 9 19 11.9101 19 15.5C19 19.0899 16.0899 22 12.5 22C8.91015 22 6 19.0899 6 15.5Z" fill="black"/>
<circle cx="12.5" cy="15.5" r="2.5" fill="#black"/>
<path fill-rule="evenodd" clip-rule="evenodd" d="M12 4C10.3642 4 9 5.36254 9 7.09091C9 7.64319 8.55228 8.09091 8 8.09091C7.44772 8.09091 7 7.64319 7 7.09091C7 4.30058 9.21751 2 12 2C14.7825 2 17 4.30058 17 7.09091V11C17 11.5523 16.5523 12 16 12C15.4477 12 15 11.5523 15 11V7.09091C15 5.36254 13.6358 4 12 4Z" fill="black"/>
</svg>
